<svg width="60" height="61" viewBox="0 0 60 61" fill="none" xmlns="http://www.w3.org/2000/svg">
<path d="M37.9278 60.5H21.3775C6.39945 60.5 0 54.1007 0 39.1231V22.5732C0 7.59557 6.39945 1.19629 21.3775 1.19629H26.8942C28.0252 1.19629 28.963 2.13412 28.963 3.26502C28.963 4.39593 28.0252 5.33376 26.8942 5.33376H21.3775C8.66132 5.33376 4.13757 9.85739 4.13757 22.5732V39.1231C4.13757 51.8389 8.66132 56.3625 21.3775 56.3625H37.9278C50.6439 56.3625 55.1677 51.8389 55.1677 39.1231V33.6065C55.1677 32.4755 56.1055 31.5377 57.2364 31.5377C58.3674 31.5377 59.3052 32.4755 59.3052 33.6065V39.1231C59.3052 54.1007 52.9058 60.5 37.9278 60.5Z" fill="#292D32"/>
<path d="M19.9961 46.5432C18.3135 46.5432 16.7688 45.9364 15.6379 44.8331C14.2863 43.4815 13.707 41.5231 14.0104 39.4544L15.1965 31.1519C15.4172 29.552 16.4654 27.4833 17.5963 26.3524L39.3323 4.61678C44.8214 -0.872261 50.3934 -0.872261 55.8826 4.61678C58.8892 7.62334 60.2408 10.6851 59.965 13.7468C59.7167 16.2293 58.3927 18.6566 55.8826 21.1391L34.1465 42.8747C33.0156 44.0056 30.9468 45.0538 29.3469 45.2744L21.0443 46.4605C20.6857 46.5432 20.3271 46.5432 19.9961 46.5432ZM42.2561 7.54059L20.5202 29.2762C19.9961 29.8003 19.3893 31.0139 19.2789 31.7311L18.0928 40.0336C17.9825 40.8335 18.148 41.4955 18.5618 41.9093C18.9755 42.323 19.6375 42.4885 20.4375 42.3782L28.7401 41.1921C29.4572 41.0818 30.6985 40.475 31.195 39.9509L52.9311 18.2153C54.724 16.4224 55.6619 14.8225 55.7998 13.3331C55.9653 11.5401 55.0275 9.63691 52.9311 7.51301C48.5177 3.09971 45.4834 4.34095 42.2561 7.54059Z" fill="#292D32"/>
<path d="M51.3044 24.862C51.1113 24.862 50.9182 24.8344 50.7527 24.7792C43.4982 22.7381 37.7332 16.9732 35.692 9.71885C35.3885 8.61552 36.023 7.48462 37.1263 7.15362C38.2297 6.85021 39.3606 7.48462 39.664 8.58794C41.3191 14.4631 45.9807 19.1247 51.8561 20.7797C52.9594 21.0831 53.5939 22.2416 53.2904 23.3449C53.0422 24.2827 52.2147 24.862 51.3044 24.862Z" fill="#292D32"/>
</svg>
