<svg width="24" height="25" viewBox="0 0 24 25" fill="none" xmlns="http://www.w3.org/2000/svg">
<path opacity="0.4" d="M22 12.0129C22 17.5369 17.523 22.0129 12 22.0129C6.477 22.0129 2 17.5369 2 12.0129C2 6.49094 6.477 2.01294 12 2.01294C17.523 2.01294 22 6.49094 22 12.0129Z" fill="#8A92A6"/>
<path fill-rule="evenodd" clip-rule="evenodd" d="M12.8701 12.6439C12.8701 13.1259 12.4771 13.5189 11.9951 13.5189C11.5131 13.5189 11.1201 13.1259 11.1201 12.6439V8.22388C11.1201 7.74188 11.5131 7.34888 11.9951 7.34888C12.4771 7.34888 12.8701 7.74188 12.8701 8.22388V12.6439ZM11.1251 15.8167C11.1251 15.3347 11.5161 14.9417 11.9951 14.9417C12.4881 14.9417 12.8801 15.3347 12.8801 15.8167C12.8801 16.2987 12.4881 16.6917 12.0051 16.6917C11.5201 16.6917 11.1251 16.2987 11.1251 15.8167Z" fill="#8A92A6"/>
</svg>
