<svg width="24" height="25" viewBox="0 0 24 25" fill="none" xmlns="http://www.w3.org/2000/svg">
<path d="M11.9488 14.5531C8.49884 14.5531 5.58789 15.1168 5.58789 17.2926C5.58789 19.4692 8.51765 20.0132 11.9488 20.0132C15.3988 20.0132 18.3098 19.4494 18.3098 17.2737C18.3098 15.097 15.38 14.5531 11.9488 14.5531Z" fill="#8A92A6"/>
<path opacity="0.4" d="M11.9485 12.4802C14.2847 12.4802 16.1578 10.5962 16.1578 8.2467C16.1578 5.89625 14.2847 4.01318 11.9485 4.01318C9.61244 4.01318 7.73926 5.89625 7.73926 8.2467C7.73926 10.5962 9.61244 12.4802 11.9485 12.4802Z" fill="#8A92A6"/>
<path opacity="0.4" d="M21.0876 9.23241C21.692 6.85495 19.92 4.71973 17.6636 4.71973C17.4182 4.71973 17.1836 4.74674 16.9544 4.79267C16.924 4.79988 16.8899 4.81519 16.872 4.8422C16.8514 4.87642 16.8666 4.92235 16.889 4.95207C17.5669 5.90846 17.9564 7.07288 17.9564 8.32285C17.9564 9.52059 17.5991 10.6373 16.9723 11.564C16.9078 11.6594 16.9651 11.7882 17.0789 11.808C17.2365 11.8359 17.3976 11.8503 17.5624 11.8548C19.2054 11.8981 20.6802 10.8345 21.0876 9.23241Z" fill="#8A92A6"/>
<path d="M22.8094 14.8301C22.5086 14.1853 21.7824 13.7432 20.6783 13.5261C20.1572 13.3983 18.747 13.2181 17.4352 13.2425C17.4155 13.2452 17.4048 13.2587 17.403 13.2677C17.4003 13.2803 17.4057 13.3019 17.4316 13.3154C18.0378 13.6171 20.3811 14.9292 20.0865 17.6966C20.074 17.8164 20.1698 17.9199 20.2888 17.9019C20.8655 17.8191 22.3492 17.4985 22.8094 16.4998C23.0637 15.972 23.0637 15.3588 22.8094 14.8301Z" fill="#8A92A6"/>
<path opacity="0.4" d="M7.04508 4.79292C6.81675 4.74609 6.58126 4.71997 6.33592 4.71997C4.0795 4.71997 2.3075 6.85519 2.91279 9.23266C3.31931 10.8347 4.79403 11.8983 6.4371 11.8551C6.60185 11.8506 6.76392 11.8353 6.92061 11.8082C7.03433 11.7884 7.09164 11.6597 7.02717 11.5642C6.40039 10.6366 6.04312 9.52083 6.04312 8.3231C6.04312 7.07222 6.43352 5.9078 7.11134 4.95231C7.13283 4.9226 7.14894 4.87667 7.12745 4.84245C7.10954 4.81453 7.07642 4.80012 7.04508 4.79292Z" fill="#8A92A6"/>
<path d="M3.32156 13.5259C2.21752 13.7429 1.49225 14.1851 1.19139 14.8299C0.936203 15.3585 0.936203 15.9718 1.19139 16.5004C1.65163 17.4982 3.13531 17.8197 3.71195 17.9017C3.83104 17.9197 3.92595 17.817 3.91342 17.6964C3.61883 14.9298 5.9621 13.6177 6.56918 13.3161C6.59425 13.3016 6.59962 13.2809 6.59694 13.2674C6.59515 13.2584 6.5853 13.2449 6.5656 13.2431C5.25294 13.2179 3.84358 13.398 3.32156 13.5259Z" fill="#8A92A6"/>
</svg>
