<svg width="24" height="25" viewBox="0 0 24 25" fill="none" xmlns="http://www.w3.org/2000/svg">
<path opacity="0.4" d="M21.25 13.4881C20.429 13.4881 19.761 12.8262 19.761 12.0127C19.761 11.1982 20.429 10.5363 21.25 10.5363C21.449 10.5363 21.64 10.458 21.78 10.3193C21.921 10.1796 22 9.99036 22 9.79318L21.999 7.11587C21.999 4.85274 20.14 3.01172 17.856 3.01172H6.144C3.86 3.01172 2.001 4.85274 2.001 7.11587L2 9.87938C2 10.0766 2.079 10.2658 2.22 10.4055C2.36 10.5443 2.551 10.6225 2.75 10.6225C3.599 10.6225 4.239 11.22 4.239 12.0127C4.239 12.8262 3.571 13.4881 2.75 13.4881C2.336 13.4881 2 13.821 2 14.2312V16.9066C2 19.1697 3.858 21.0117 6.143 21.0117H17.857C20.142 21.0117 22 19.1697 22 16.9066V14.2312C22 13.821 21.664 13.4881 21.25 13.4881Z" fill="#8A92A6"/>
<path d="M15.4308 11.6004L14.2518 12.7484L14.5308 14.3714C14.5788 14.6524 14.4658 14.9294 14.2348 15.0954C14.0058 15.2634 13.7068 15.2844 13.4548 15.1504L11.9998 14.3854L10.5418 15.1514C10.4338 15.2084 10.3158 15.2384 10.1988 15.2384C10.0458 15.2384 9.89483 15.1904 9.76483 15.0964C9.53483 14.9294 9.42183 14.6524 9.46983 14.3714L9.74783 12.7484L8.56883 11.6004C8.36483 11.4024 8.29383 11.1114 8.38183 10.8404C8.47083 10.5704 8.70083 10.3784 8.98183 10.3384L10.6078 10.1014L11.3368 8.6244C11.4638 8.3704 11.7178 8.2124 11.9998 8.2124H12.0018C12.2848 8.2134 12.5388 8.3714 12.6638 8.6254L13.3928 10.1014L15.0218 10.3394C15.2998 10.3784 15.5298 10.5704 15.6178 10.8404C15.7068 11.1114 15.6358 11.4024 15.4308 11.6004Z" fill="#8A92A6"/>
</svg>
