<svg width="24" height="25" viewBox="0 0 24 25" fill="none" xmlns="http://www.w3.org/2000/svg">
<path opacity="0.4" d="M16.191 2.01172H7.81C4.77 2.01172 3 3.79172 3 6.84172V17.1717C3 20.2717 4.77 22.0117 7.81 22.0117H16.191C19.28 22.0117 21 20.2717 21 17.1717V6.84172C21 3.79172 19.28 2.01172 16.191 2.01172" fill="white"/>
<path fill-rule="evenodd" clip-rule="evenodd" d="M8.07996 6.66174V6.67174C7.64896 6.67174 7.29996 7.02174 7.29996 7.45174C7.29996 7.88174 7.64896 8.23174 8.07996 8.23174H11.069C11.5 8.23174 11.85 7.88174 11.85 7.44074C11.85 7.01174 11.5 6.66174 11.069 6.66174H8.07996ZM15.92 12.7517H8.07996C7.64896 12.7517 7.29996 12.4017 7.29996 11.9717C7.29996 11.5417 7.64896 11.1907 8.07996 11.1907H15.92C16.35 11.1907 16.7 11.5417 16.7 11.9717C16.7 12.4017 16.35 12.7517 15.92 12.7517ZM15.92 17.3217H8.07996C7.77996 17.3617 7.48996 17.2117 7.32996 16.9617C7.16996 16.7017 7.16996 16.3717 7.32996 16.1217C7.48996 15.8617 7.77996 15.7217 8.07996 15.7517H15.92C16.319 15.7917 16.62 16.1317 16.62 16.5417C16.62 16.9407 16.319 17.2817 15.92 17.3217Z" fill="white"/>
</svg>
