<svg width="24" height="25" viewBox="0 0 24 25" fill="none" xmlns="http://www.w3.org/2000/svg">
<path opacity="0.4" d="M21.25 13.4881C20.429 13.4881 19.761 12.8262 19.761 12.0127C19.761 11.1982 20.429 10.5363 21.25 10.5363C21.449 10.5363 21.64 10.458 21.78 10.3193C21.921 10.1796 22 9.99036 22 9.79318L21.999 7.11587C21.999 4.85274 20.14 3.01172 17.856 3.01172H6.144C3.86 3.01172 2.001 4.85274 2.001 7.11587L2 9.87938C2 10.0766 2.079 10.2658 2.22 10.4055C2.36 10.5443 2.551 10.6225 2.75 10.6225C3.599 10.6225 4.239 11.22 4.239 12.0127C4.239 12.8262 3.571 13.4881 2.75 13.4881C2.336 13.4881 2 13.821 2 14.2312V16.9066C2 19.1697 3.858 21.0117 6.143 21.0117H17.857C20.142 21.0117 22 19.1697 22 16.9066V14.2312C22 13.821 21.664 13.4881 21.25 13.4881" fill="white"/>
<path d="M15.4308 11.6003L14.2518 12.7483L14.5308 14.3713C14.5788 14.6523 14.4658 14.9293 14.2348 15.0953C14.0058 15.2633 13.7068 15.2843 13.4548 15.1503L11.9998 14.3853L10.5418 15.1513C10.4338 15.2083 10.3158 15.2383 10.1988 15.2383C10.0458 15.2383 9.89483 15.1903 9.76483 15.0963C9.53483 14.9293 9.42183 14.6523 9.46983 14.3713L9.74783 12.7483L8.56883 11.6003C8.36483 11.4023 8.29383 11.1113 8.38183 10.8403C8.47083 10.5703 8.70083 10.3783 8.98183 10.3383L10.6078 10.1013L11.3368 8.62428C11.4638 8.37028 11.7178 8.21228 11.9998 8.21228H12.0018C12.2848 8.21328 12.5388 8.37128 12.6638 8.62528L13.3928 10.1013L15.0218 10.3393C15.2998 10.3783 15.5298 10.5703 15.6178 10.8403C15.7068 11.1113 15.6358 11.4023 15.4308 11.6003" fill="white"/>
</svg>
