<svg width="24" height="25" viewBox="0 0 24 25" fill="none" xmlns="http://www.w3.org/2000/svg">
<path opacity="0.4" d="M16.191 2.01172H7.81C4.77 2.01172 3 3.79172 3 6.84172V17.1717C3 20.2717 4.77 22.0117 7.81 22.0117H16.191C19.28 22.0117 21 20.2717 21 17.1717V6.84172C21 3.79172 19.28 2.01172 16.191 2.01172Z" fill="#8A92A6"/>
<path fill-rule="evenodd" clip-rule="evenodd" d="M8.07996 6.66162V6.67162C7.64896 6.67162 7.29996 7.02162 7.29996 7.45162C7.29996 7.88162 7.64896 8.23162 8.07996 8.23162H11.069C11.5 8.23162 11.85 7.88162 11.85 7.44062C11.85 7.01162 11.5 6.66162 11.069 6.66162H8.07996ZM15.92 12.7516H8.07996C7.64896 12.7516 7.29996 12.4016 7.29996 11.9716C7.29996 11.5416 7.64896 11.1906 8.07996 11.1906H15.92C16.35 11.1906 16.7 11.5416 16.7 11.9716C16.7 12.4016 16.35 12.7516 15.92 12.7516ZM15.92 17.3216H8.07996C7.77996 17.3616 7.48996 17.2116 7.32996 16.9616C7.16996 16.7016 7.16996 16.3716 7.32996 16.1216C7.48996 15.8616 7.77996 15.7216 8.07996 15.7516H15.92C16.319 15.7916 16.62 16.1316 16.62 16.5416C16.62 16.9406 16.319 17.2816 15.92 17.3216Z" fill="#8A92A6"/>
</svg>
